HIERARCHY
ROOT Pelvis
{
	OFFSET 0.000000 0.941512 0.000000
	CHANNELS 6 Xposition Yposition Zposition Zrotation Yrotation Xrotation 
	JOINT Pelvis_L_Hip
	{
		OFFSET 0.000000 0.000000 0.000000
		CHANNELS 3 Zrotation Yrotation Xrotation
		JOINT L_Hip
		{
			OFFSET 0.062321 -0.080322 -0.016990
			CHANNELS 3 Zrotation Yrotation Xrotation
			JOINT L_Knee
			{
				OFFSET 0.093051 -0.381305 -0.029784
				CHANNELS 3 Zrotation Yrotation Xrotation
				JOINT L_Ankle
				{
					OFFSET -0.010371 -0.431000 -0.033614
					CHANNELS 3 Zrotation Yrotation Xrotation
					End Site #name: L_Foot
					{
						OFFSET 0.069299 -0.038670 0.119418
					}
				}
			}
		}
	}
	JOINT Pelvis_R_Hip
	{
		OFFSET 0.000000 0.000000 0.000000
		CHANNELS 3 Zrotation Yrotation Xrotation
		JOINT R_Hip
		{
			OFFSET -0.055334 -0.094904 -0.002373
			CHANNELS 3 Zrotation Yrotation Xrotation
			JOINT R_Knee
			{
				OFFSET -0.064207 -0.384370 -0.019592
				CHANNELS 3 Zrotation Yrotation Xrotation
				JOINT R_Ankle
				{
					OFFSET 0.025418 -0.419734 -0.065953
					CHANNELS 3 Zrotation Yrotation Xrotation
					End Site #name: R_Foot
					{
						OFFSET -0.057233 -0.039888 0.132134
					}
				}
			}
		}
	}
	JOINT Pelvis_Spine1
	{
		OFFSET 0.000000 0.000000 0.000000
		CHANNELS 3 Zrotation Yrotation Xrotation
		JOINT Spine1
		{
			OFFSET -0.005562 0.124093 -0.043360
			CHANNELS 3 Zrotation Yrotation Xrotation
			JOINT Spine2
			{
				OFFSET 0.012244 0.139499 0.029894
				CHANNELS 3 Zrotation Yrotation Xrotation
				JOINT Spine3
				{
					OFFSET -0.002556 0.056561 0.009225
					CHANNELS 3 Zrotation Yrotation Xrotation
					JOINT Spine3_Neck
					{
						OFFSET 0.000000 0.000000 0.000000
						CHANNELS 3 Zrotation Yrotation Xrotation
						JOINT Neck
						{
							OFFSET -0.005205 0.217920 -0.024551
							CHANNELS 3 Zrotation Yrotation Xrotation
							End Site #name: Head
							{
								OFFSET 0.002365 0.091850 0.046637
							}
						}
					}
					JOINT Spine3_L_Collar
					{
						OFFSET 0.000000 0.000000 0.000000
						CHANNELS 3 Zrotation Yrotation Xrotation
						JOINT L_Collar
						{
							OFFSET 0.072225 0.116603 -0.009480
							CHANNELS 3 Zrotation Yrotation Xrotation
							JOINT L_Shoulder
							{
								OFFSET 0.115937 -0.058643 -0.021018
								CHANNELS 3 Zrotation Yrotation Xrotation
								JOINT L_Elbow
								{
									OFFSET 0.021994 -0.254722 -0.024492
									CHANNELS 3 Zrotation Yrotation Xrotation
									End Site #name: L_Wrist
									{
										OFFSET 0.048810 -0.240214 0.103329
									}
								}
							}
						}
					}
					JOINT Spine3_R_Collar
					{
						OFFSET 0.000000 0.000000 0.000000
						CHANNELS 3 Zrotation Yrotation Xrotation
						JOINT R_Collar
						{
							OFFSET -0.073372 0.120704 -0.024611
							CHANNELS 3 Zrotation Yrotation Xrotation
							JOINT R_Shoulder
							{
								OFFSET -0.108089 -0.054969 -0.020504
								CHANNELS 3 Zrotation Yrotation Xrotation
								JOINT R_Elbow
								{
									OFFSET -0.033684 -0.260739 0.009889
									CHANNELS 3 Zrotation Yrotation Xrotation
									End Site #name: R_Wrist
									{
										OFFSET -0.067980 -0.232763 0.118463
									}
								}
							}
						}
					}
				}
			}
		}
	}
}
MOTION
Frames: 11
Frame Time: 0.041667
0.000000 0.959033 0.000000 -1.383922 -4.606123 5.636462 0.000000 0.000000 0.000000 -2.397011 -1.557162 -6.648926 4.204085 -0.551082 3.404000 1.964241 5.661139 -0.208206 0.000000 0.000000 0.000000 1.995951 1.535667 -8.934606 0.974361 -0.050373 1.776966 -0.481244 -10.266877 7.284844 0.000000 0.000000 0.000000 6.518281 -0.211298 -8.745468 -4.481848 0.862501 1.589019 1.170013 3.162652 -1.762966 0.000000 0.000000 0.000000 -4.212058 2.286506 6.569568 0.000000 0.000000 0.000000 16.226543 1.141566 3.877477 -25.916423 2.318152 -0.682652 21.101083 8.901402 -4.619811 0.000000 0.000000 0.000000 -25.492210 7.688918 -0.700238 33.816740 -1.832195 7.324642 -22.662625 -11.131442 3.164512 
-0.003234 0.959000 -0.000558 -1.382406 -4.737470 5.647437 0.000000 0.000000 0.000000 -2.186578 -1.553837 -6.613238 4.160169 -0.542337 3.329701 1.955478 5.828378 -0.081066 0.000000 0.000000 0.000000 2.222507 1.554309 -9.012999 0.937012 -0.039397 1.855708 -0.497631 -10.178810 7.140941 0.000000 0.000000 0.000000 6.298775 -0.192266 -8.665314 -4.234470 0.819270 1.605073 1.308108 3.058071 -1.729013 0.000000 0.000000 0.000000 -4.148102 2.257447 6.616207 0.000000 0.000000 0.000000 16.550708 0.311920 3.349982 -25.537358 2.375643 -0.400933 17.735827 7.308174 -7.122167 0.000000 0.000000 0.000000 -25.756481 8.085110 -0.960059 32.833643 -1.871901 7.471657 -20.599546 -10.035679 -0.045623 
-0.006928 0.958846 -0.001263 -1.382214 -4.851186 5.731260 0.000000 0.000000 0.000000 -1.957158 -1.587387 -6.724238 4.180080 -0.547034 3.371111 1.923725 5.937017 0.053411 0.000000 0.000000 0.000000 2.466161 1.607746 -9.267951 0.928216 -0.023264 2.110563 -0.543622 -10.103802 6.937861 0.000000 0.000000 0.000000 6.009773 -0.166818 -8.561168 -3.961425 0.775977 1.674181 1.521436 2.909479 -1.794544 0.000000 0.000000 0.000000 -4.076399 2.219330 6.487281 0.000000 0.000000 0.000000 16.666825 -0.415175 2.838516 -25.901076 2.356654 -0.585602 15.022376 5.914400 -8.553931 0.000000 0.000000 0.000000 -25.540846 8.488082 -1.291922 31.436900 -2.089550 8.094207 -17.808310 -8.428358 -3.131077 
-0.010807 0.958625 -0.001525 -1.343960 -4.953065 5.811712 0.000000 0.000000 0.000000 -1.804305 -1.606634 -6.784033 4.280931 -0.559635 3.382864 1.847879 5.973319 0.227887 0.000000 0.000000 0.000000 2.626522 1.657259 -9.506836 1.013823 -0.021965 2.388493 -0.593057 -9.984731 6.684930 0.000000 0.000000 0.000000 5.755565 -0.149855 -8.427402 -3.782117 0.747287 1.719137 1.792781 2.746154 -1.847731 0.000000 0.000000 0.000000 -3.986199 2.170337 6.331552 0.000000 0.000000 0.000000 16.406975 -0.986926 2.359503 -27.097023 2.378581 -0.872164 13.449382 5.053820 -9.513033 0.000000 0.000000 0.000000 -25.228005 8.797712 -1.554508 29.314750 -2.484813 9.268889 -14.024204 -6.020526 -6.530085 
-0.014626 0.958387 -0.000801 -1.347570 -5.034072 5.854802 0.000000 0.000000 0.000000 -1.646273 -1.603082 -6.756824 4.443232 -0.580123 3.422241 1.815468 5.965687 0.286496 0.000000 0.000000 0.000000 2.753615 1.664894 -9.532511 1.232573 -0.054111 2.484375 -0.602913 -9.791210 6.462289 0.000000 0.000000 0.000000 5.864915 -0.174044 -8.376491 -3.766614 0.767433 2.007371 1.876862 2.592798 -2.116345 0.000000 0.000000 0.000000 -3.839311 2.090029 6.347764 0.000000 0.000000 0.000000 15.470616 -1.511769 1.797845 -28.184424 2.539701 -0.710401 12.221131 4.343555 -10.460186 0.000000 0.000000 0.000000 -25.132146 9.004580 -1.705976 27.007284 -2.979784 10.887041 -10.142217 -3.212343 -9.897820 
-0.019071 0.958040 0.000536 -1.430597 -5.081270 5.929049 0.000000 0.000000 0.000000 -1.316224 -1.623129 -6.809377 4.512003 -0.601495 3.644018 1.827705 5.987160 0.276206 0.000000 0.000000 0.000000 3.018273 1.667108 -9.514637 1.448258 -0.087253 2.558101 -0.637071 -9.621301 6.206235 0.000000 0.000000 0.000000 6.257944 -0.233123 -8.375417 -3.805949 0.803060 2.360508 1.702837 2.411063 -2.503550 0.000000 0.000000 0.000000 -3.631743 1.975490 6.465027 0.000000 0.000000 0.000000 14.417569 -1.918973 1.314213 -28.623767 2.809230 -0.045184 10.053214 3.088990 -11.442147 0.000000 0.000000 0.000000 -25.079492 9.038934 -1.709317 25.773686 -3.341526 12.115229 -7.883432 -1.427635 -11.740141 
-0.025013 0.957712 0.002539 -1.226601 -5.275463 5.978627 0.000000 0.000000 0.000000 -1.215897 -1.623360 -6.798373 4.534001 -0.619982 3.901333 1.863794 6.151731 0.314343 0.000000 0.000000 0.000000 3.087167 1.696642 -9.659520 1.594367 -0.087751 3.023495 -0.749291 -9.407385 5.705028 0.000000 0.000000 0.000000 6.212442 -0.209687 -8.509080 -3.830348 0.838676 2.747786 1.528518 2.198693 -2.753237 0.000000 0.000000 0.000000 -3.428415 1.871417 6.714964 0.000000 0.000000 0.000000 14.134837 -2.128530 1.094446 -29.137946 3.125341 0.681818 6.880352 1.288898 -11.953462 0.000000 0.000000 0.000000 -24.959170 8.870496 -1.528785 26.181359 -3.360351 12.118664 -7.833728 -1.547833 -11.081543 
-0.032700 0.957286 0.005666 -0.811502 -5.721870 5.876177 0.000000 0.000000 0.000000 -1.328943 -1.565940 -6.567640 4.615270 -0.653724 4.283969 1.994433 6.557527 0.326220 0.000000 0.000000 0.000000 3.040733 1.727084 -9.823219 1.676408 -0.052437 3.942907 -0.909824 -8.978042 4.875854 0.000000 0.000000 0.000000 5.805916 -0.125543 -8.708083 -3.871500 0.892245 3.310885 1.428651 1.954243 -2.911942 0.000000 0.000000 0.000000 -3.276162 1.803324 6.926184 0.000000 0.000000 0.000000 14.253645 -2.148939 1.049939 -29.792131 3.391220 1.184723 4.217747 -0.133702 -11.647528 0.000000 0.000000 0.000000 -24.628663 8.620520 -1.275961 27.633165 -3.077903 11.143688 -9.290048 -2.976326 -8.505286 
-0.041806 0.956304 0.008909 -0.659655 -6.358884 5.774973 0.000000 0.000000 0.000000 -1.035474 -1.642066 -6.839513 4.519498 -0.735287 5.856421 2.519358 7.352695 -0.204717 0.000000 0.000000 0.000000 3.396573 1.795284 -10.115362 1.685301 0.016275 5.182614 -1.074246 -8.376182 3.898784 0.000000 0.000000 0.000000 5.708850 -0.132246 -8.586038 -3.910732 0.896239 3.275183 1.268230 1.705079 -2.670593 0.000000 0.000000 0.000000 -3.215994 1.783825 6.651998 0.000000 0.000000 0.000000 14.416317 -2.022510 1.099215 -30.230050 3.518485 1.296347 3.240268 -0.626811 -11.387455 0.000000 0.000000 0.000000 -24.261563 8.436521 -1.064307 29.458281 -2.725207 9.976532 -10.915675 -4.440588 -5.671834 
-0.051156 0.954987 0.011681 -0.651012 -7.186961 5.743553 0.000000 0.000000 0.000000 -0.673519 -2.019509 -8.362322 4.453462 -0.940516 9.840507 3.581875 8.654162 -1.555260 0.000000 0.000000 0.000000 3.890664 1.891495 -10.508231 1.703231 0.088741 6.424340 -1.139758 -7.581866 3.028358 0.000000 0.000000 0.000000 5.908402 -0.233160 -8.109804 -4.020039 0.863750 2.646723 1.099659 1.523085 -2.135881 0.000000 0.000000 0.000000 -3.376712 1.884428 6.036860 0.000000 0.000000 0.000000 14.838878 -1.952168 1.142997 -30.303103 3.429748 0.902542 3.070637 -0.653478 -11.026922 0.000000 0.000000 0.000000 -24.188226 8.449047 -0.956880 31.327849 -2.551942 9.284418 -11.541071 -5.058715 -4.042097 
-0.059455 0.954131 0.014962 -0.619703 -8.245149 5.379315 0.000000 0.000000 0.000000 -0.807213 -2.590402 -10.737394 4.600643 -1.257322 16.170608 4.801797 10.292272 -3.114847 0.000000 0.000000 0.000000 4.252418 1.838449 -10.198990 1.716785 0.132626 7.054448 -1.011042 -6.484175 2.405150 0.000000 0.000000 0.000000 6.248349 -0.426648 -7.124200 -4.195150 0.860785 2.239611 0.994016 1.464804 -1.901698 0.000000 0.000000 0.000000 -3.737467 2.091067 5.397002 0.000000 0.000000 0.000000 15.128365 -1.914169 1.133998 -30.102547 3.224523 0.312486 3.413381 -0.345217 -10.367109 0.000000 0.000000 0.000000 -24.257188 8.709151 -1.025602 32.620274 -2.691362 9.442395 -10.934098 -4.731870 -4.075905 
